<svg xmlns="http://www.w3.org/2000/svg" width="723.003" height="723.127" viewBox="0 0 723.003 723.127"><defs><style>.a,.b{fill:#3f53e0;}.b{font-size:284px;}.b,.c{font-family:JetBrainsMono-SemiBold, JetBrains Mono;font-weight:600;}.c,.d{fill:#dda300;}.c{font-size:181px;}</style></defs><g transform="translate(0)"><path class="a" d="M1176.769,392.181a64.23,64.23,0,0,1,64.063,64.146V992.62a64.229,64.229,0,0,1-64.187,64.146H640.518a64.229,64.229,0,0,1-64.146-64.146V456.327a64.23,64.23,0,0,1,64.146-64.146h536.25m0-29.271H640.518A93.417,93.417,0,0,0,547.1,456.327V992.62a93.417,93.417,0,0,0,93.417,93.417h536.25A93.46,93.46,0,0,0,1270.1,992.62V456.327a93.46,93.46,0,0,0-93.459-93.417Z" transform="translate(-547.1 -362.91)"/><text class="b" transform="translate(60.926 299.2)"><tspan x="0" y="0">Y</tspan></text><text class="b" transform="translate(60.926 587.731)"><tspan x="0" y="0">f</tspan></text><text class="b" transform="translate(271.22 587.731)"><tspan x="0" y="0">i</tspan></text><text class="b" transform="translate(481.555 587.731)"><tspan x="0" y="0">l</tspan></text><text class="b" transform="translate(481.555 299.2)"><tspan x="0" y="0">t</tspan></text><text class="c" transform="translate(241.53 267.796)"><tspan x="0" y="0">()</tspan></text><path class="d" d="M128.415,23.011V1.381l.77-.182a45.491,45.491,0,0,0,14.746-6.263,43.339,43.339,0,0,0,11.278-10.993,49.283,49.283,0,0,0,7.184-14.881,63.929,63.929,0,0,0,2.4-17.932V-81.45a65.235,65.235,0,0,0-2.4-18.116,50.278,50.278,0,0,0-7.187-15.064A44.086,44.086,0,0,0,143.923-125.8a45.791,45.791,0,0,0-14.748-6.441l-.76-.188v-20.888l1.243.311A85.5,85.5,0,0,1,146-147.171a72.181,72.181,0,0,1,13.9,8.742,71.363,71.363,0,0,1,11.221,11.267,70.012,70.012,0,0,1,8.332,13.428A69.623,69.623,0,0,1,184.625-98.4a81.55,81.55,0,0,1,1.719,16.951v32.58a81.134,81.134,0,0,1-3.714,25.015A66.248,66.248,0,0,1,171.466-3a68.58,68.58,0,0,1-17.907,15.8,87.365,87.365,0,0,1-23.893,9.89Zm2-20.054V20.42a84.586,84.586,0,0,0,22.1-9.326A66.586,66.586,0,0,0,169.9-4.242a64.255,64.255,0,0,0,10.828-20.23,79.143,79.143,0,0,0,3.617-24.4V-81.45a79.547,79.547,0,0,0-1.675-16.534,67.62,67.62,0,0,0-5.016-14.893,68.009,68.009,0,0,0-8.093-13.044,69.361,69.361,0,0,0-10.906-10.95,70.18,70.18,0,0,0-13.518-8.5,82.8,82.8,0,0,0-14.72-5.38v16.757a47.529,47.529,0,0,1,14.629,6.533,46.078,46.078,0,0,1,11.8,11.677,52.274,52.274,0,0,1,7.474,15.661A67.228,67.228,0,0,1,166.8-81.45v32.58a65.922,65.922,0,0,1-2.484,18.494,51.276,51.276,0,0,1-7.477,15.482,45.331,45.331,0,0,1-11.8,11.5A47.218,47.218,0,0,1,130.415,2.957ZM88.785,23.011l-1.25-.323A87.365,87.365,0,0,1,63.641,12.8,68.58,68.58,0,0,1,45.734-3,66.248,66.248,0,0,1,34.57-23.855,81.134,81.134,0,0,1,30.856-48.87V-81.45A81.55,81.55,0,0,1,32.575-98.4a69.623,69.623,0,0,1,5.165-15.334,70.012,70.012,0,0,1,8.332-13.428A71.363,71.363,0,0,1,57.293-138.43a72.182,72.182,0,0,1,13.9-8.742,85.5,85.5,0,0,1,16.346-5.839l1.243-.311v20.888l-.76.188A45.791,45.791,0,0,0,73.277-125.8,44.086,44.086,0,0,0,61.995-114.63a50.279,50.279,0,0,0-7.187,15.064A65.235,65.235,0,0,0,52.4-81.45v32.58a63.929,63.929,0,0,0,2.4,17.932,49.283,49.283,0,0,0,7.184,14.881A43.339,43.339,0,0,0,73.269-5.064,45.491,45.491,0,0,0,88.015,1.2l.77.182Zm-2-173.761a82.8,82.8,0,0,0-14.72,5.38,70.18,70.18,0,0,0-13.518,8.5,69.36,69.36,0,0,0-10.906,10.95,68.009,68.009,0,0,0-8.093,13.044,67.621,67.621,0,0,0-5.016,14.893A79.547,79.547,0,0,0,32.856-81.45v32.58a79.142,79.142,0,0,0,3.617,24.4A64.255,64.255,0,0,0,47.3-4.242,66.586,66.586,0,0,0,64.688,11.094a84.586,84.586,0,0,0,22.1,9.326V2.957A47.218,47.218,0,0,1,72.164-3.4a45.331,45.331,0,0,1-11.8-11.5,51.278,51.278,0,0,1-7.477-15.482A65.922,65.922,0,0,1,50.4-48.87V-81.45a67.228,67.228,0,0,1,2.483-18.672,52.274,52.274,0,0,1,7.474-15.661,46.078,46.078,0,0,1,11.8-11.677,47.529,47.529,0,0,1,14.629-6.533Z" transform="translate(241.53 267.796)"/></g></svg>