<svg xmlns="http://www.w3.org/2000/svg" width="723.003" height="723.127" viewBox="0 0 723.003 723.127">
  <g id="logo" transform="translate(0)">
    <path id="Path_1" data-name="Path 1" d="M1176.769,392.181a64.23,64.23,0,0,1,64.063,64.146V992.62a64.229,64.229,0,0,1-64.187,64.146H640.518a64.229,64.229,0,0,1-64.146-64.146V456.327a64.23,64.23,0,0,1,64.146-64.146h536.25m0-29.271H640.518A93.417,93.417,0,0,0,547.1,456.327V992.62a93.417,93.417,0,0,0,93.417,93.417h536.25A93.46,93.46,0,0,0,1270.1,992.62V456.327a93.46,93.46,0,0,0-93.459-93.417Z" transform="translate(-547.1 -362.91)" fill="#3f53e0"/>
    <text id="Y" transform="translate(60.926 299.2)" fill="#3f53e0" font-size="284" font-family="JetBrainsMono-SemiBold, JetBrains Mono" font-weight="600"><tspan x="0" y="0">Y</tspan></text>
    <text id="f" transform="translate(60.926 587.731)" fill="#3f53e0" font-size="284" font-family="JetBrainsMono-SemiBold, JetBrains Mono" font-weight="600"><tspan x="0" y="0">f</tspan></text>
    <text id="i" transform="translate(271.22 587.731)" fill="#3f53e0" font-size="284" font-family="JetBrainsMono-SemiBold, JetBrains Mono" font-weight="600"><tspan x="0" y="0">i</tspan></text>
    <text id="l" transform="translate(481.555 587.731)" fill="#3f53e0" font-size="284" font-family="JetBrainsMono-SemiBold, JetBrains Mono" font-weight="600"><tspan x="0" y="0">l</tspan></text>
    <text id="t" transform="translate(481.555 299.2)" fill="#3f53e0" font-size="284" font-family="JetBrainsMono-SemiBold, JetBrains Mono" font-weight="600"><tspan x="0" y="0">t</tspan></text>
    <text id="_" data-name="()" transform="translate(241.53 267.796)" fill="#dda300" stroke="#dda300" stroke-miterlimit="10" stroke-width="2" font-size="181" font-family="JetBrainsMono-SemiBold, JetBrains Mono" font-weight="600"><tspan x="0" y="0">()</tspan></text>
  </g>
</svg>
