<?xml version="1.0" encoding="UTF-8" standalone="no"?>
<!-- Generator: Adobe Illustrator 19.0.0, SVG Export Plug-In . SVG Version: 6.00 Build 0)  -->
<svg id="Capa_1" style="enable-background:new 0 0 412.72 412.72" xmlns="http://www.w3.org/2000/svg" xml:space="preserve" viewBox="0 0 412.72 412.72" version="1.1" y="0px" x="0px" xmlns:xlink="http://www.w3.org/1999/xlink">
		<path d="m404.72 82.944h-0.08-27.12v-9.28c0.146-3.673-2.23-6.974-5.76-8-18.828-4.934-38.216-7.408-57.68-7.36-32 0-75.6 7.2-107.84 40-32-33.12-75.92-40-107.84-40-19.464-0.048-38.852 2.426-57.68 7.36-3.53 1.026-5.906 4.327-5.76 8v9.2h-26.96c-4.418 0-8 3.582-8 8v255.52c0 4.418 3.582 8 8 8 1.374-0.004 2.724-0.362 3.92-1.04 0.8-0.4 80.8-44.16 192.48-16h1.92c0.638 0.077 1.282 0.077 1.92 0 112-28.4 192 15.28 192.48 16 2.475 1.429 5.525 1.429 8 0 2.46-1.42 3.983-4.039 4-6.88v-255.52c0-4.414-3.58-7.996-8-7.996zm-388.72 250.72v-234.72h19.12v200.64c-0.05 4.418 3.491 8.04 7.909 8.09 0.432 0.005 0.864-0.025 1.291-0.09 16.55-2.527 33.259-3.864 50-4 23.19-0.402 46.283 3.086 68.32 10.32-49.76-6.01-100.24 0.79-146.64 19.76zm78.32-46c-14.551 0.033-29.085 0.968-43.52 2.8v-210.48c15.576-3.47 31.482-5.241 47.44-5.28 29.92 0 71.2 6.88 99.84 39.2l0.24 199.28c-16.64-10.88-49.12-25.52-104-25.52zm120-173.76c28.64-32 69.92-39.2 99.84-39.2 15.957 0.047 31.863 1.817 47.44 5.28v210.48c-14.354-1.849-28.808-2.811-43.28-2.88-54.56 0-87.12 14.64-104 25.52v-199.2zm182.32 219.76c-46.496-19.028-97.09-25.831-146.96-19.76 22.141-7.26 45.344-10.749 68.64-10.32 16.846 0.094 33.663 1.404 50.32 3.92 4.368 0.663 8.447-2.341 9.11-6.709 0.065-0.427 0.095-0.859 0.09-1.291v-200.56h19.12l-0.32 234.72z"/>
</svg>
