<?xml version="1.0" encoding="UTF-8" standalone="no"?>
<!-- Generator: Adobe Illustrator 19.0.0, SVG Export Plug-In . SVG Version: 6.00 Build 0)  -->
<svg id="Layer_1" style="enable-background:new 0 0 512 512" xmlns="http://www.w3.org/2000/svg" xml:space="preserve" viewBox="0 0 512 512" version="1.1" y="0px" x="0px" xmlns:xlink="http://www.w3.org/1999/xlink">
<g transform="translate(1 1)">
			<path d="m455.83 440.38h-107.63c27.42-10.952 48.388-26.532 64.374-45.4 65.231-9.903 94.458-63.846 94.458-113.5 0-35.246-19.627-64.674-45.028-69.82 0.002-0.267 0.005-0.534 0.007-0.8 0-4.414-1.766-8.828-5.297-12.359s-7.945-5.297-12.359-5.297h-406.07c-4.414 0-8.828 1.766-12.359 5.297s-5.297 7.945-5.297 12.359c0.683 94.94 17.221 190.94 113.81 229.52h-108.51c-12.359 0-22.952 9.71-22.952 22.952 0 10.593 7.062 18.538 19.421 21.186l112.11 7.945c2.648 0 5.297 1.766 6.179 4.414 4.414 8.828 13.241 14.124 22.952 14.124h146.54c9.71 0 18.538-5.297 22.069-14.124 0.883-2.648 3.531-4.414 6.179-4.414l120.06-7.945h0.883c12.359-2.648 19.421-10.593 19.421-21.186 0-12.36-9.71-22.95-22.95-22.95zm6.18-210.1c15.007 5.297 26.483 26.483 26.483 51.2 0 34.4-15.867 75.85-59.925 90.887 0.738-1.253 1.46-2.516 2.167-3.789 24.52-42.53 29.56-93.74 31.28-138.3zm-423.73-19.42h406.07c-0.883 119.17-26.483 229.52-203.03 229.52s-202.15-110.35-203.04-229.52zm419.31 256l-118.29 7.945c-8.828 0.883-16.772 6.179-21.186 14.124-1.766 2.648-4.414 4.414-7.062 4.414h-147.41c-2.648 0-5.297-1.766-7.062-4.414-4.414-7.945-12.359-13.241-21.186-14.124l-110.34-7.945c-4.414-0.883-4.414-2.648-4.414-3.531 0-2.648 2.648-5.297 5.297-5.297h430.78c2.648 0 5.297 2.648 5.297 5.297 0 0.88 0 2.65-4.42 3.53z"/>
			<path d="m235.14 72.269c-13.241 13.241-20.303 26.483-20.303 40.607s7.062 28.248 20.303 42.372c1.766 1.766 3.531 2.648 6.179 2.648s4.414-0.883 6.179-2.648c3.531-3.531 3.531-8.828 0-12.359-9.71-10.593-15.007-20.303-15.007-30.014s5.297-19.421 15.007-28.248c13.24-12.363 20.3-26.487 20.3-40.611s-6.179-29.131-20.303-42.372c-3.531-3.531-8.828-3.531-12.359 0s-3.531 8.828 0 12.359c9.71 10.593 15.007 20.303 15.007 30.014s-5.3 19.419-15.01 28.247z"/>
			<path d="m311.94 112.88c0 14.124 7.062 28.248 20.303 42.372 1.766 1.766 3.531 2.648 6.179 2.648 1.766 0 4.414-0.883 5.297-2.648 3.531-3.531 3.531-8.828 0-12.359-9.71-10.593-15.007-20.303-15.007-30.014s5.297-19.421 15.007-28.248c14.124-12.359 21.186-26.483 21.186-40.607 0-15.007-6.179-29.131-20.303-42.372-3.531-3.531-8.828-3.531-12.359 0s-3.531 8.828 0 12.359c9.71 10.593 15.007 20.303 15.007 30.014s-5.297 18.538-15.007 28.248c-13.25 13.236-20.31 26.478-20.31 40.606z"/>
			<path d="m126.56 112.88c0 14.124 7.062 28.248 20.303 42.372 1.766 1.766 3.531 2.648 6.179 2.648 1.766 0 4.414-0.883 5.297-2.648 3.531-3.531 3.531-8.828 0-12.359-9.71-10.593-15.007-20.303-15.007-30.014s5.297-19.421 15.007-28.248c14.124-12.359 21.186-26.483 21.186-40.607 0-15.007-6.179-29.131-20.303-42.372-3.531-3.531-8.828-3.531-12.359 0s-3.531 8.828 0 12.359c9.71 10.593 15.007 20.303 15.007 30.014s-5.297 18.538-15.007 28.248c-13.25 13.236-20.31 26.478-20.31 40.606z"/>
			<path d="m190.12 396.24c-62.676-10.593-94.455-45.903-107.7-116.52-0.883-4.414-6.179-7.945-10.593-7.062s-7.945 6.179-7.062 10.593c14.124 78.565 52.083 118.29 121.82 130.65h1.766c4.414 0 7.945-2.648 8.828-7.062 0.88-5.3-2.65-9.72-7.06-10.6z"/>
</g>
</svg>
