<?xml version="1.0" encoding="UTF-8" standalone="no"?>
<!-- Generator: Adobe Illustrator 19.0.0, SVG Export Plug-In . SVG Version: 6.00 Build 0)  -->
<svg id="Capa_1" style="enable-background:new 0 0 321.145 321.145" xmlns="http://www.w3.org/2000/svg" xml:space="preserve" viewBox="0 0 321.145 321.145" version="1.1" y="0px" x="0px" xmlns:xlink="http://www.w3.org/1999/xlink">
		<path d="m320.97 200.98c-0.8-18.4-4-38.8-8.8-58-4.8-18.4-10.8-35.6-18-48.8-28-49.2-58.4-41.6-94.8-32-11.6 2.8-24 6-36.8 7.2h-4c-12.8-1.2-25.2-4.4-36.8-7.2-36.4-9.2-66.8-17.2-94.8 32.4-7.2 13.2-13.6 30.4-18 48.8-4.8 19.2-8 39.6-8.8 58-0.8 20.4 1.2 35.2 5.6 45.6 4.4 9.6 10.8 15.6 19.2 18 7.6 2 16.4 1.2 25.6-2.8 15.6-6.4 33.6-20 51.2-36.4 12.4-12 35.6-18 58.8-18s46.4 6 58.8 18c17.6 16.4 35.6 30 51.2 36.4 9.2 3.6 18 4.8 25.6 2.8 8-2.4 14.8-8 19.2-18.4 4.4-10 6.4-24.8 5.6-45.6zm-19.2 40c-2.4 5.6-5.6 8.8-9.6 10-4.4 1.2-10 0.4-16.4-2-14-5.6-30.4-18-46.4-33.2-15.2-15.2-42-22.8-68.8-22.8s-53.6 7.6-69.2 22c-16.4 15.2-32.8 28-46.4 33.2-6.4 2.4-12 3.6-16.4 2-4-1.2-7.2-4.4-9.6-10-3.2-7.6-4.8-20-4-38.4 0.8-17.2 3.6-36.8 8.4-55.2 4.4-17.2 10-33.2 16.8-45.2 22-39.6 47.6-33.2 78-25.2 12.4 3.2 25.2 6.4 39.2 7.6h0.8 4.4 0.8c14.4-1.2 27.2-4.4 39.6-7.6 30.4-7.6 56-14.4 78 25.2 6.8 12 12.4 27.6 16.8 45.2 4.4 18.4 7.6 37.6 8.4 55.2 0.8 18.4-0.8 30.8-4.4 39.2z"/>
		<path d="m123.77 122.98c-4-3.6-8.8-6.4-14.4-6.8-0.4-5.2-2.8-10.4-6.4-14l-0.4-0.4c-4.4-4.4-10-6.8-16.4-6.8s-12.4 2.8-16.4 6.8c-3.6 3.6-6.4 8.8-6.8 14.4-5.6 0.4-10.4 2.8-14.4 6.4l-0.4 0.4c-4.4 4.4-6.8 10-6.8 16.4s2.8 12.4 6.8 16.4 8.8 6.4 14.8 6.8c0.4 5.6 2.8 10.8 6.8 14.4 4.4 4.4 10 6.8 16.4 6.8s12.4-2.8 16.4-6.8c3.6-4 6.4-8.8 6.8-14.4 5.6-0.4 10.8-2.8 14.4-6.8 4.4-4.4 6.8-10 6.8-16.4s-2.8-12.4-6.8-16.4zm-10 22.4c-1.6 1.6-3.6 2.4-6 2.4h-5.6c-4 0-7.6 3.2-7.6 7.6v5.2c0 2.4-0.8 4.4-2.4 6s-3.6 2.4-6 2.4-4.4-0.8-6-2.4-2.4-3.6-2.4-6v-5.6c0-4-3.2-7.6-7.6-7.6h-5.6c-2.4 0-4.4-0.8-6-2.4-1.2-1.2-2.4-3.2-2.4-5.6s0.8-4.4 2.4-6l0.4-0.4c1.6-1.2 3.6-2 5.6-2h5.6c4 0 7.6-3.2 7.6-7.6v-5.6c0-2.4 0.8-4.4 2.4-6s3.6-2.4 6-2.4 4.4 0.8 6 2.4l0.4 0.4c1.2 1.6 2 3.6 2 5.6v5.6c0 4 3.2 7.6 7.6 7.6h5.6c2.4 0 4.4 0.8 6 2.4s2.4 3.6 2.4 6-0.8 4.4-2.4 6z"/>
		<circle cy="110.98" cx="230.17" r="14"/>
		<circle cy="167.78" cx="230.17" r="14"/>
		<circle cy="139.38" cx="201.77" r="14"/>
		<circle cy="139.38" cx="258.57" r="14"/>
</svg>
