<?xml version="1.0" encoding="UTF-8" standalone="no"?>
<!-- Generator: Adobe Illustrator 19.0.0, SVG Export Plug-In . SVG Version: 6.00 Build 0)  -->
<svg id="Capa_1" style="enable-background:new 0 0 512 512" xmlns="http://www.w3.org/2000/svg" xml:space="preserve" viewBox="0 0 512 512" version="1.1" y="0px" x="0px" xmlns:xlink="http://www.w3.org/1999/xlink">
		<path d="m298.67 25.6h-85.333c-4.71 0-8.533 3.823-8.533 8.533s3.823 8.533 8.533 8.533h85.333c4.71 0 8.533-3.823 8.533-8.533s-3.82-8.533-8.53-8.533z"/>
		<path d="m358.4 25.6h-8.533c-4.71 0-8.533 3.823-8.533 8.533s3.823 8.533 8.533 8.533h8.533c4.71 0 8.533-3.823 8.533-8.533s-3.82-8.533-8.53-8.533z"/>
		<path d="m266.6 435.2h-21.19c-12.979 0-23.543 10.564-23.543 23.543v4.122c0 12.979 10.564 23.535 23.535 23.535h21.188c12.979 0 23.543-10.556 23.543-23.535v-4.122c0-12.98-10.56-23.54-23.53-23.54zm6.47 27.66c0 3.567-2.901 6.468-6.468 6.468h-21.19c-3.575 0-6.477-2.901-6.477-6.468v-4.122c0-3.575 2.901-6.477 6.477-6.477h21.18c3.576 0 6.477 2.901 6.477 6.477v4.12z"/>
		<path d="m370.23 0h-228.45c-17.007 0-30.848 13.841-30.848 30.848v450.3c0 17.007 13.841 30.848 30.848 30.848h228.44c17.007 0 30.848-13.841 30.848-30.839v-450.31c0-17.009-13.84-30.85-30.84-30.85zm13.77 481.15c0 7.595-6.178 13.781-13.773 13.781h-228.45c-7.603 0-13.781-6.187-13.781-13.773v-450.31c0-7.595 6.178-13.781 13.781-13.781h228.44c7.603 0 13.781 6.187 13.781 13.781v450.3z"/>
		<path d="m392.53 51.2h-273.06c-4.71 0-8.533 3.823-8.533 8.533v358.4c0 4.71 3.823 8.533 8.533 8.533h273.07c4.71 0 8.533-3.823 8.533-8.533v-358.4c0-4.707-3.83-8.53-8.54-8.53zm-8.53 358.4h-256v-341.33h256v341.33z"/>
</svg>
