<?xml version="1.0" encoding="UTF-8" standalone="no"?>
<!-- Generator: Adobe Illustrator 19.0.0, SVG Export Plug-In . SVG Version: 6.00 Build 0)  -->
<svg id="Capa_1" style="enable-background:new 0 0 64 64" xmlns="http://www.w3.org/2000/svg" xml:space="preserve" viewBox="0 0 64 64" version="1.1" y="0px" x="0px" xmlns:xlink="http://www.w3.org/1999/xlink">
<g id="Clocks_1_">
	<path id="Clocks" d="m63.022 26.237c-0.665-0.798-1.601-1.255-2.568-1.255h-1.454v-1.174c0-2.109-1.832-3.826-4.083-3.826h-1.917v-2.167c0-1.02-0.435-2.015-1.192-2.731-1.506-1.423-4.109-1.423-5.615 0-0.758 0.717-1.193 1.712-1.193 2.732v10.167h-26v-10.167c0-1.02-0.434-2.015-1.192-2.731-1.506-1.423-4.109-1.423-5.615 0-0.758 0.716-1.193 1.711-1.193 2.731v2.167h-2.15c-1.011 0-1.967 0.365-2.693 1.028-0.735 0.675-1.157 1.617-1.157 2.583v1.388h-1.44c-0.972 0-1.912 0.459-2.579 1.26-0.632 0.76-0.981 1.759-0.981 2.812v5.856c0 1.053 0.349 2.052 0.982 2.812 0.667 0.801 1.607 1.26 2.578 1.26h1.44v1.388c0 0.966 0.422 1.908 1.159 2.585 0.724 0.662 1.68 1.027 2.691 1.027h2.15v2.167c0 1.02 0.435 2.015 1.192 2.73 0.753 0.711 1.75 1.103 2.808 1.103s2.055-0.392 2.808-1.103c0.758-0.716 1.192-1.711 1.192-2.73v-10.167h26v10.167c0 1.02 0.435 2.015 1.192 2.73 0.753 0.711 1.75 1.103 2.808 1.103s2.055-0.392 2.808-1.103c0.757-0.716 1.192-1.711 1.192-2.73v-2.167h1.917c2.251 0 4.083-1.716 4.083-3.826v-1.174h1.454c0.967 0 1.903-0.458 2.569-1.255 0.63-0.757 0.978-1.751 0.978-2.8v-5.889c-0.001-1.049-0.348-2.044-0.979-2.801zm-59.462 10.745c-0.381 0-0.751-0.192-1.041-0.54-0.33-0.395-0.519-0.954-0.519-1.532v-5.856c0-0.578 0.189-1.136 0.519-1.532 0.29-0.348 0.66-0.54 1.041-0.54h1.44v10h-1.44zm5.29 5c-0.503 0-0.992-0.183-1.339-0.501-0.33-0.303-0.511-0.697-0.511-1.111v-16.776c0-0.414 0.181-0.809 0.509-1.11 0.35-0.319 0.838-0.502 1.341-0.502h2.15v20h-2.15zm8.15 4.167c0 0.479-0.201 0.932-0.565 1.276-0.75 0.708-2.119 0.708-2.869 0-0.365-0.344-0.566-0.798-0.566-1.276v-28.334c0-0.479 0.201-0.932 0.565-1.276 0.375-0.354 0.898-0.557 1.435-0.557s1.06 0.203 1.435 0.557c0.364 0.344 0.565 0.798 0.565 1.277v28.333zm2-12.167v-4h26v4h-26zm32 12.167c0 0.479-0.201 0.932-0.565 1.276-0.75 0.708-2.119 0.708-2.869 0-0.365-0.344-0.566-0.798-0.566-1.276v-28.333c0-0.479 0.201-0.932 0.565-1.276 0.375-0.354 0.898-0.557 1.435-0.557s1.06 0.203 1.435 0.557c0.364 0.343 0.565 0.797 0.565 1.276v28.333zm6-5.993c0 1.007-0.934 1.826-2.083 1.826h-1.917v-20h1.917c1.148 0 2.083 0.819 2.083 1.826v16.348zm5-5.23c0 0.574-0.188 1.127-0.514 1.52-0.288 0.346-0.655 0.536-1.032 0.536h-1.454v-10h1.454c0.377 0 0.744 0.19 1.032 0.536 0.327 0.392 0.514 0.946 0.514 1.52v5.888z"/>
</g>
</svg>
